<?xml version="1.0" standalone="no"?>
<!DOCTYPE svg PUBLIC "-//W3C//DTD SVG 20010904//EN"
 "http://www.w3.org/TR/2001/REC-SVG-20010904/DTD/svg10.dtd">
<svg version="1.0" xmlns="http://www.w3.org/2000/svg"
 width="1618.000000pt" height="651.000000pt" viewBox="0 0 1618.000000 651.000000"
 preserveAspectRatio="xMidYMid meet">
<g transform="translate(0.000000,651.000000) scale(0.100000,-0.100000)"
fill="#000000" stroke="none">
<path d="M2173 5880 c-266 -28 -550 -128 -797 -282 -432 -268 -748 -730 -844
-1233 -15 -81 -17 -198 -19 -1150 -2 -583 -6 -1267 -11 -1520 -7 -467 -3 -669
18 -739 17 -57 82 -121 143 -143 76 -27 457 -27 533 0 92 32 141 100 158 222
4 22 11 533 17 1135 18 1816 22 1992 47 2080 99 351 343 605 674 701 104 30
321 37 442 15 185 -35 334 -115 476 -256 143 -142 221 -278 278 -489 l26 -96
7 -1030 c4 -566 10 -1043 13 -1060 3 -16 10 -68 17 -115 15 -116 61 -254 126
-383 165 -323 442 -561 790 -676 307 -102 653 -93 933 27 370 157 650 450 779
815 72 205 72 205 81 997 9 856 3 1071 -30 1148 -26 60 -80 112 -137 131 -54
19 -397 27 -477 11 -124 -24 -183 -84 -207 -210 -8 -47 -12 -279 -13 -835 -1
-763 -1 -771 -23 -848 -47 -166 -140 -285 -274 -351 -285 -141 -584 12 -685
349 -17 55 -18 121 -20 845 -1 806 -8 1158 -25 1314 -43 399 -213 761 -494
1054 -282 295 -641 485 -1050 558 -101 18 -344 25 -452 14z" fill="#1C0B31" />
<path d="M8940 5880 c-41 -6 -141 -23 -222 -40 -565 -116 -983 -335 -1352
-706 -230 -232 -348 -391 -460 -625 -63 -130 -168 -401 -219 -564 -45 -145
-76 -379 -77 -581 -1 -505 123 -951 377 -1355 272 -432 606 -736 1048 -954
209 -103 410 -172 645 -219 378 -76 582 -76 960 0 376 76 728 228 1005 434 95
71 257 206 395 329 189 168 281 163 483 -26 220 -206 403 -347 588 -453 264
-151 558 -254 895 -312 109 -19 166 -22 369 -22 203 0 260 3 369 22 569 98
1021 323 1410 702 143 139 250 270 368 450 120 182 196 341 268 557 149 452
178 865 90 1303 -104 520 -353 978 -731 1345 -385 374 -840 599 -1405 697
-187 32 -551 32 -738 0 -411 -71 -762 -210 -1091 -432 -142 -96 -305 -244
-478 -435 -314 -348 -562 -923 -592 -1375 -3 -47 -12 -193 -20 -325 -18 -285
-29 -363 -62 -464 -110 -338 -379 -672 -725 -898 -475 -311 -1086 -345 -1603
-87 -250 124 -524 366 -668 589 -105 164 -201 396 -243 590 -26 118 -24 381 5
540 41 227 81 366 141 486 134 266 372 534 616 691 147 95 392 189 579 224
151 28 483 26 618 -4 208 -46 357 -107 584 -239 177 -102 239 -113 340 -63
110 55 265 218 321 337 23 50 27 71 27 148 0 78 -4 97 -27 140 -14 28 -46 71
-70 95 -97 98 -389 257 -628 343 -135 49 -398 117 -550 142 -113 19 -432 28
-540 15z m4765 -920 c510 -109 930 -436 1163 -905 311 -625 183 -1395 -313
-1879 -309 -302 -640 -459 -1054 -498 -369 -34 -774 82 -1087 314 -238 177
-440 414 -553 652 -116 242 -144 377 -144 691 0 253 12 343 68 505 198 569
692 1005 1266 1119 151 30 147 30 359 26 152 -3 217 -8 295 -25z" fill="#1C0B31" />
<circle r="430" cx="5625" cy="5450" fill="#1C0B31" />
</g>
</svg>
